<?xml version="1.0" encoding="iso-8859-1"?>
<!-- Generator: Adobe Illustrator 19.0.0, SVG Export Plug-In . SVG Version: 6.00 Build 0)  -->
<svg version="1.1" id="Layer_1" xmlns="http://www.w3.org/2000/svg" xmlns:xlink="http://www.w3.org/1999/xlink" x="0px" y="0px"
	 viewBox="0 0 512 512" style="enable-background:new 0 0 512 512;" xml:space="preserve">
<path style="fill:#e84f4f;" d="M512,256.006C512,397.402,397.394,512.004,256.004,512C114.606,512.004,0,397.402,0,256.006
	C-0.007,114.61,114.606,0,256.004,0C397.394,0,512,114.614,512,256.006z"/>
<path style="fill:#e84f4f;" d="M512,256.005c0-0.059-0.004-0.117-0.004-0.176c-0.304-0.314-173.278-173.35-173.823-173.823
	c-2.74-3.162-6.735-5.206-11.239-5.206H185.067c-8.236,0-14.933,6.698-14.933,14.933v159.105
	c-14.903,13.57-14.933,38.717-14.933,58.755v118.14c0,2.455,1.264,4.53,3.093,5.891c0.435,0.586,76.759,76.909,77.344,77.344
	c0.048,0.064,0.116,0.103,0.164,0.164c6.672,0.521,13.394,0.866,20.202,0.866C397.394,512.004,512,397.401,512,256.005z"/>
<g>
	<path style="fill:#F4F6F9;" d="M341.867,250.523V91.733c0-8.236-6.698-14.933-14.933-14.933H185.067
		c-8.236,0-14.933,6.698-14.933,14.933v159.105c-14.903,13.57-14.933,38.717-14.933,58.755v118.14c0,4.124,3.343,7.467,7.467,7.467
		s7.467-3.343,7.467-7.467v-97.067h14.933v44.8c0,4.124,3.343,7.467,7.467,7.467S200,379.59,200,375.467v-44.8h112v44.8
		c0,4.124,3.343,7.467,7.467,7.467c4.124,0,7.467-3.343,7.467-7.467v-44.8h14.933v97.067c0,4.124,3.343,7.467,7.467,7.467
		c4.124,0,7.467-3.343,7.467-7.467v-118.14C356.8,288.439,356.77,263.723,341.867,250.523z M185.067,91.733h141.867v151.075
		c-4.325-1.124-9.265-1.742-14.933-1.742H200c-5.668,0-10.608,0.643-14.933,1.809V91.733z M170.133,309.594
		c0-33.228,1.444-53.594,29.867-53.594h112c28.481,0,29.867,19.366,29.867,53.594v6.14H170.133V309.594z"/>
	<rect x="222.4" y="121.6" style="fill:#F4F6F9;" width="14.933" height="74.667"/>
	<rect x="274.667" y="121.6" style="fill:#F4F6F9;" width="14.933" height="74.667"/>
</g>
<g>
</g>
<g>
</g>
<g>
</g>
<g>
</g>
<g>
</g>
<g>
</g>
<g>
</g>
<g>
</g>
<g>
</g>
<g>
</g>
<g>
</g>
<g>
</g>
<g>
</g>
<g>
</g>
<g>
</g>
</svg>
